<svg width="94" height="93" viewBox="0 0 94 93" fill="none" xmlns="http://www.w3.org/2000/svg">
<ellipse opacity="0.2" cx="47" cy="46.7179" rx="45" ry="44.7179" stroke="#173430" stroke-width="1.5"/>
<path d="M47 2C56.5003 2 65.7568 4.98785 73.4437 10.5356C81.1306 16.0833 86.8534 23.9062 89.7925 32.8838C92.7315 41.8613 92.7359 51.5329 89.8051 60.5132C86.8743 69.4934 81.1587 77.3215 73.4769 82.8762C65.7951 88.4309 56.5413 91.4271 47.041 91.4357C37.5408 91.4443 28.2815 88.4648 20.5895 82.9241C12.8975 77.3834 7.16752 69.5656 4.22024 60.5907C1.27297 51.6158 1.25966 41.9442 4.18221 32.9613" stroke="#173430" stroke-width="3" stroke-linecap="round" stroke-linejoin="round"/>
<rect x="13.25" y="13.1797" width="67.5" height="67.0768" rx="33.5384" fill="#173430"/>
<path d="M43.9167 53.0129L49.75 47.1795L43.9167 41.3462" stroke="white" stroke-width="2" stroke-linecap="round" stroke-linejoin="round"/>
</svg>
