<svg width="93" height="93" viewBox="0 0 93 93" fill="none" xmlns="http://www.w3.org/2000/svg">
<ellipse opacity="0.2" cx="46" cy="46.7179" rx="45" ry="44.7179" stroke="#173430" stroke-width="1.5"/>
<path d="M46 2C51.9095 2 57.7611 3.15666 63.2208 5.40395C68.6804 7.65123 73.6412 10.9451 77.8198 15.0976C81.9984 19.25 85.3131 24.1797 87.5746 29.6051C89.836 35.0305 91 40.8454 91 46.7179C91 52.5903 89.836 58.4052 87.5746 63.8306C85.3131 69.2561 81.9984 74.1857 77.8198 78.3382C73.6412 82.4906 68.6804 85.7845 63.2207 88.0318C57.7611 90.2791 51.9095 91.4357 46 91.4357" stroke="#173430" stroke-width="3" stroke-linecap="round" stroke-linejoin="round"/>
<rect x="12.25" y="13.1797" width="67.5" height="67.0768" rx="33.5384" fill="#173430"/>
<path d="M42.9167 53.0129L48.75 47.1795L42.9167 41.3462" stroke="white" stroke-width="2" stroke-linecap="round" stroke-linejoin="round"/>
</svg>
