<svg width="24" height="24" viewBox="0 0 24 24" fill="none" xmlns="http://www.w3.org/2000/svg">
<path fill-rule="evenodd" clip-rule="evenodd" d="M4.65642 14.0939C4.72626 14.1635 4.78168 14.2463 4.81949 14.3374C4.8573 14.4285 4.87676 14.5262 4.87676 14.6249C4.87676 14.7235 4.8573 14.8212 4.81949 14.9123C4.78168 15.0034 4.72626 15.0862 4.65642 15.1559L3.15642 16.6559C3.01579 16.7967 2.82497 16.8759 2.62595 16.876C2.42692 16.8762 2.236 16.7973 2.09517 16.6566C1.95434 16.516 1.87514 16.3252 1.875 16.1262C1.87486 15.9271 1.95379 15.7362 2.09442 15.5954L3.59442 14.0954C3.66409 14.0255 3.74685 13.9701 3.83797 13.9323C3.92908 13.8945 4.02677 13.875 4.12542 13.875C4.22407 13.875 4.32175 13.8945 4.41287 13.9323C4.50399 13.9701 4.58675 14.0255 4.65642 14.0954V14.0939ZM7.88592 16.6064C7.97044 16.657 8.04416 16.7238 8.10287 16.8029C8.16158 16.882 8.20412 16.9719 8.22808 17.0674C8.25204 17.163 8.25694 17.2623 8.2425 17.3598C8.22806 17.4572 8.19456 17.5509 8.14392 17.6354L7.01892 19.5104C6.91668 19.681 6.75083 19.8041 6.55785 19.8525C6.36488 19.9009 6.16058 19.8706 5.98992 19.7684C5.81925 19.6661 5.69619 19.5003 5.6478 19.3073C5.59942 19.1143 5.62968 18.91 5.73192 18.7394L6.85692 16.8644C6.90753 16.7799 6.9743 16.7061 7.05341 16.6474C7.13251 16.5887 7.22241 16.5462 7.31797 16.5222C7.41353 16.4983 7.51287 16.4934 7.61032 16.5078C7.70777 16.5222 7.80142 16.5557 7.88592 16.6064ZM12.0004 17.2499C12.1993 17.2499 12.3901 17.3289 12.5307 17.4695C12.6714 17.6102 12.7504 17.801 12.7504 17.9999V20.2499C12.7504 20.4488 12.6714 20.6396 12.5307 20.7802C12.3901 20.9209 12.1993 20.9999 12.0004 20.9999C11.8015 20.9999 11.6107 20.9209 11.4701 20.7802C11.3294 20.6396 11.2504 20.4488 11.2504 20.2499V17.9999C11.2504 17.801 11.3294 17.6102 11.4701 17.4695C11.6107 17.3289 11.8015 17.2499 12.0004 17.2499ZM16.1149 16.6064C16.1994 16.5557 16.2931 16.5222 16.3905 16.5078C16.488 16.4934 16.5873 16.4983 16.6829 16.5222C16.7784 16.5462 16.8683 16.5887 16.9474 16.6474C17.0265 16.7061 17.0933 16.7799 17.1439 16.8644L18.2689 18.7394C18.3712 18.91 18.4014 19.1143 18.353 19.3073C18.3046 19.5003 18.1816 19.6661 18.0109 19.7684C17.8403 19.8706 17.636 19.9009 17.443 19.8525C17.25 19.8041 17.0842 19.681 16.9819 19.5104L15.8569 17.6354C15.8063 17.5509 15.7728 17.4572 15.7583 17.3598C15.7439 17.2623 15.7488 17.163 15.7728 17.0674C15.7967 16.9719 15.8393 16.882 15.898 16.8029C15.9567 16.7238 16.0304 16.657 16.1149 16.6064ZM19.3444 14.0939C19.4141 14.024 19.4969 13.9686 19.588 13.9308C19.6791 13.893 19.7768 13.8735 19.8754 13.8735C19.9741 13.8735 20.0718 13.893 20.1629 13.9308C20.254 13.9686 20.3368 14.024 20.4064 14.0939L21.9064 15.5939C22.0472 15.7345 22.1264 15.9253 22.1266 16.1243C22.1267 16.3234 22.0478 16.5143 21.9072 16.6551C21.7665 16.796 21.5757 16.8752 21.3767 16.8753C21.1777 16.8754 20.9867 16.7965 20.8459 16.6559L19.3459 15.1559C19.2761 15.0862 19.2207 15.0034 19.1828 14.9123C19.145 14.8212 19.1256 14.7235 19.1256 14.6249C19.1256 14.5262 19.145 14.4285 19.1828 14.3374C19.2207 14.2463 19.2761 14.1635 19.3459 14.0939H19.3444Z" fill="black"/>
<path fill-rule="evenodd" clip-rule="evenodd" d="M1.79273 11.406C1.9501 11.2845 2.14925 11.2306 2.34642 11.2559C2.54358 11.2812 2.72263 11.3837 2.84423 11.541C4.69523 13.944 6.37973 15.366 7.89023 16.188C9.1457 16.8906 10.5616 17.2564 12.0002 17.25C13.2452 17.25 14.6087 17.0055 16.1102 16.188C17.6207 15.3645 19.3052 13.944 21.1562 11.5425C21.2795 11.3906 21.4572 11.2928 21.6515 11.2701C21.8458 11.2473 22.0413 11.3014 22.1963 11.4208C22.3513 11.5402 22.4535 11.7154 22.4812 11.909C22.5088 12.1027 22.4597 12.2995 22.3442 12.4575C20.4032 14.9775 18.5672 16.5585 16.8272 17.505C15.3518 18.3274 13.6894 18.7562 12.0002 18.75C10.311 18.7562 8.64869 18.3274 7.17323 17.505C5.43323 16.5585 3.59723 14.979 1.65623 12.4575C1.53479 12.3001 1.4808 12.101 1.50611 11.9038C1.53142 11.7066 1.63397 11.5276 1.79123 11.406H1.79273Z" fill="black"/>
</svg>
