<svg width="94" height="93" viewBox="0 0 94 93" fill="none" xmlns="http://www.w3.org/2000/svg">
<ellipse opacity="0.2" cx="47" cy="46.7179" rx="45" ry="44.7179" stroke="#173430" stroke-width="1.5"/>
<path d="M47 2C52.9095 2 58.7611 3.15666 64.2208 5.40395C69.6804 7.65123 74.6412 10.9451 78.8198 15.0976C82.9984 19.25 86.3131 24.1797 88.5746 29.6051C90.836 35.0305 92 40.8454 92 46.7179C92 52.5903 90.836 58.4052 88.5746 63.8306C86.3131 69.2561 82.9984 74.1857 78.8198 78.3382C74.6412 82.4906 69.6804 85.7845 64.2207 88.0318C58.7611 90.2791 52.9095 91.4357 47 91.4357C41.0905 91.4357 35.2389 90.279 29.7792 88.0318C24.3196 85.7845 19.3588 82.4906 15.1802 78.3381C11.0015 74.1857 7.68687 69.256 5.42541 63.8306C3.16395 58.4052 2 52.5903 2 46.7178C2 40.8454 3.16397 35.0305 5.42543 29.6051C7.6869 24.1796 11.0016 19.25 15.1802 15.0975C19.3589 10.9451 24.3196 7.65121 29.7793 5.40393C35.2389 3.15665 41.0905 2 47 2L47 2Z" stroke="#173430" stroke-width="3" stroke-linecap="round" stroke-linejoin="round"/>
<rect x="13.25" y="13.1797" width="67.5" height="67.0768" rx="33.5384" fill="#173430"/>
<path d="M43.9167 53.0129L49.75 47.1795L43.9167 41.3462" stroke="white" stroke-width="2" stroke-linecap="round" stroke-linejoin="round"/>
</svg>
