<svg width="94" height="93" viewBox="0 0 94 93" fill="none" xmlns="http://www.w3.org/2000/svg">
<ellipse opacity="0.2" cx="47" cy="46.7179" rx="45" ry="44.7179" stroke="#173430" stroke-width="1.5"/>
<path d="M47 2C57.7152 2 68.0787 5.79952 76.2263 12.7151C84.3739 19.6307 89.7709 29.2084 91.4464 39.7254C93.122 50.2424 90.966 61.0083 85.3665 70.0867C79.7669 79.165 71.0912 85.9598 60.9001 89.2489C50.7089 92.538 39.6712 92.1054 29.7723 88.0289C19.8735 83.9525 11.7633 76.4998 6.90064 67.0114C2.03796 57.523 0.741972 46.6218 3.2458 36.2686C5.74962 25.9154 11.8889 16.7898 20.5593 10.5334" stroke="#173430" stroke-width="3" stroke-linecap="round" stroke-linejoin="round"/>
<rect x="13.25" y="13.1797" width="67.5" height="67.0768" rx="33.5384" fill="#173430"/>
<path d="M43.9167 53.0129L49.75 47.1795L43.9167 41.3462" stroke="white" stroke-width="2" stroke-linecap="round" stroke-linejoin="round"/>
</svg>
