<svg width="93" height="93" viewBox="0 0 93 93" fill="none" xmlns="http://www.w3.org/2000/svg">
<ellipse opacity="0.2" cx="46" cy="46.7179" rx="45" ry="44.7179" stroke="#173430" stroke-width="1.5"/>
<path d="M46 2C54.3021 2 62.4424 4.28228 69.5202 8.59433C76.598 12.9064 82.3375 19.0801 86.1035 26.4325C89.8696 33.7848 91.5155 42.0292 90.8591 50.2534C90.2027 58.4776 87.2697 66.361 82.3844 73.0315C77.4991 79.7021 70.8521 84.8996 63.1788 88.049C55.5055 91.1985 47.1049 92.1771 38.9066 90.8767C30.7083 89.5762 23.0319 86.0474 16.7265 80.6805C10.4212 75.3137 5.7328 68.3181 3.18006 60.4678" stroke="#173430" stroke-width="3" stroke-linecap="round" stroke-linejoin="round"/>
<rect x="12.25" y="13.1797" width="67.5" height="67.0768" rx="33.5384" fill="#173430"/>
<path d="M42.9167 53.0129L48.75 47.1795L42.9167 41.3462" stroke="white" stroke-width="2" stroke-linecap="round" stroke-linejoin="round"/>
</svg>
