<svg width="93" height="93" viewBox="0 0 93 93" fill="none" xmlns="http://www.w3.org/2000/svg">
<ellipse opacity="0.2" cx="46" cy="46.7179" rx="45" ry="44.7179" stroke="#173430" stroke-width="1.5"/>
<path d="M46 2C53.1063 2 60.1115 3.67243 66.4423 6.88038C72.773 10.0883 78.2492 14.7406 82.4225 20.4563C86.5958 26.172 89.3476 32.7886 90.4526 39.7644C91.5576 46.7402 90.9844 53.8769 88.7799 60.5903C86.5754 67.3036 82.8022 73.4027 77.7694 78.3882C72.7365 83.3737 66.5871 87.1038 59.8244 89.2732C53.0618 91.4427 45.8783 91.9897 38.862 90.8696C31.8457 89.7494 25.1961 86.9939 19.4575 82.8287" stroke="#173430" stroke-width="3" stroke-linecap="round" stroke-linejoin="round"/>
<rect x="12.25" y="13.1797" width="67.5" height="67.0768" rx="33.5384" fill="#173430"/>
<path d="M42.9167 53.0129L48.75 47.1795L42.9167 41.3462" stroke="white" stroke-width="2" stroke-linecap="round" stroke-linejoin="round"/>
</svg>
